HIERARCHY
ROOT Root
{
  OFFSET 0.0 0.0 0.0
  CHANNELS 6 Xposition Yposition Zposition Zrotation Yrotation Xrotation
  JOINT Hips
  {
    OFFSET 0.0 100.0 0.0
    CHANNELS 6 Xposition Yposition Zposition Zrotation Yrotation Xrotation
    JOINT Spine1
    {
      OFFSET 5.003913 -0.037094 -0.013727
      CHANNELS 3 Zrotation Yrotation Xrotation
      JOINT Spine2
      {
        OFFSET 7.125363 -1e-06 0.0
        CHANNELS 3 Zrotation Yrotation Xrotation
        JOINT Chest
        {
          OFFSET 7.594027 1e-06 0.0
          CHANNELS 3 Zrotation Yrotation Xrotation
          JOINT Neck1
          {
            OFFSET 26.313086 -0.460272 -0.181672
            CHANNELS 3 Zrotation Yrotation Xrotation
            JOINT Neck2
            {
              OFFSET 8.045911 0.0 0.0
              CHANNELS 3 Zrotation Yrotation Xrotation
              JOINT Head
              {
                OFFSET 6.432774 0.0 0.0
                CHANNELS 3 Zrotation Yrotation Xrotation
                JOINT HeadEnd
                {
                  OFFSET 16.169773 0.06451 0.00362
                  CHANNELS 3 Zrotation Yrotation Xrotation
                }
                JOINT Jaw
                {
                  OFFSET 0.108741 3.12938 0.002639
                  CHANNELS 3 Zrotation Yrotation Xrotation
                }
                JOINT LeftEye
                {
                  OFFSET 4.45173 8.166359 3.206392
                  CHANNELS 3 Zrotation Yrotation Xrotation
                }
                JOINT RightEye
                {
                  OFFSET 4.436895 8.135758 -3.222429
                  CHANNELS 3 Zrotation Yrotation Xrotation
                }
              }
            }
          }
          JOINT LeftShoulder
          {
            OFFSET 23.218927 5.195579 1.621656
            CHANNELS 3 Zrotation Yrotation Xrotation
            JOINT LeftArm
            {
              OFFSET 15.902118 2e-06 -2e-06
              CHANNELS 3 Zrotation Yrotation Xrotation
              JOINT LeftForeArm
              {
                OFFSET 28.739307 0.0 -1e-06
                CHANNELS 3 Zrotation Yrotation Xrotation
                JOINT LeftHand
                {
                  OFFSET 27.093981 -4e-06 0.0
                  CHANNELS 3 Zrotation Yrotation Xrotation
                  JOINT LeftHandThumb1
                  {
                    OFFSET 2.276781 3.380274 0.83384
                    CHANNELS 3 Zrotation Yrotation Xrotation
                    JOINT LeftHandThumb2
                    {
                      OFFSET 4.705309 -1e-06 -1e-06
                      CHANNELS 3 Zrotation Yrotation Xrotation
                      JOINT LeftHandThumb3
                      {
                        OFFSET 2.798515 0.0 3e-06
                        CHANNELS 3 Zrotation Yrotation Xrotation
                        JOINT LeftHandThumbEnd
                        {
                          OFFSET 3.180793 4e-06 -4e-06
                          CHANNELS 3 Zrotation Yrotation Xrotation
                        }
                      }
                    }
                  }
                  JOINT LeftHandIndex1
                  {
                    OFFSET 3.247786 2.352677 0.137192
                    CHANNELS 3 Zrotation Yrotation Xrotation
                    JOINT LeftHandIndex2
                    {
                      OFFSET 6.367095 1e-06 0.0
                      CHANNELS 3 Zrotation Yrotation Xrotation
                      JOINT LeftHandIndex3
                      {
                        OFFSET 3.662364 0.0 0.0
                        CHANNELS 3 Zrotation Yrotation Xrotation
                        JOINT LeftHandIndex4
                        {
                          OFFSET 2.329242 4e-06 -4e-06
                          CHANNELS 3 Zrotation Yrotation Xrotation
                          JOINT LeftHandIndexEnd
                          {
                            OFFSET 2.767823 1e-06 0.0
                            CHANNELS 3 Zrotation Yrotation Xrotation
                          }
                        }
                      }
                    }
                  }
                  JOINT LeftHandMiddle1
                  {
                    OFFSET 3.163612 0.945023 -0.406112
                    CHANNELS 3 Zrotation Yrotation Xrotation
                    JOINT LeftHandMiddle2
                    {
                      OFFSET 6.276789 3e-06 0.0
                      CHANNELS 3 Zrotation Yrotation Xrotation
                      JOINT LeftHandMiddle3
                      {
                        OFFSET 4.35652 -1e-06 4e-06
                        CHANNELS 3 Zrotation Yrotation Xrotation
                        JOINT LeftHandMiddle4
                        {
                          OFFSET 2.996877 0.0 8e-06
                          CHANNELS 3 Zrotation Yrotation Xrotation
                          JOINT LeftHandMiddleEnd
                          {
                            OFFSET 2.323256 3e-06 -4e-06
                            CHANNELS 3 Zrotation Yrotation Xrotation
                          }
                        }
                      }
                    }
                  }
                  JOINT LeftHandRing1
                  {
                    OFFSET 2.882606 -0.309162 0.107445
                    CHANNELS 3 Zrotation Yrotation Xrotation
                    JOINT LeftHandRing2
                    {
                      OFFSET 6.033198 0.0 4e-06
                      CHANNELS 3 Zrotation Yrotation Xrotation
                      JOINT LeftHandRing3
                      {
                        OFFSET 4.350578 3e-06 0.0
                        CHANNELS 3 Zrotation Yrotation Xrotation
                        JOINT LeftHandRing4
                        {
                          OFFSET 2.651321 2e-06 -7e-06
                          CHANNELS 3 Zrotation Yrotation Xrotation
                          JOINT LeftHandRingEnd
                          {
                            OFFSET 1.937663 1e-06 -4e-06
                            CHANNELS 3 Zrotation Yrotation Xrotation
                          }
                        }
                      }
                    }
                  }
                  JOINT LeftHandPinky1
                  {
                    OFFSET 2.865315 -1.525436 0.575687
                    CHANNELS 3 Zrotation Yrotation Xrotation
                    JOINT LeftHandPinky2
                    {
                      OFFSET 5.54936 1e-06 -8e-06
                      CHANNELS 3 Zrotation Yrotation Xrotation
                      JOINT LeftHandPinky3
                      {
                        OFFSET 3.070974 0.0 -4e-06
                        CHANNELS 3 Zrotation Yrotation Xrotation
                        JOINT LeftHandPinky4
                        {
                          OFFSET 1.549672 1e-06 0.0
                          CHANNELS 3 Zrotation Yrotation Xrotation
                          JOINT LeftHandPinkyEnd
                          {
                            OFFSET 1.952123 0.0 0.0
                            CHANNELS 3 Zrotation Yrotation Xrotation
                          }
                        }
                      }
                    }
                  }
                }
              }
            }
          }
          JOINT RightShoulder
          {
            OFFSET 23.161716 5.296122 -1.380114
            CHANNELS 3 Zrotation Yrotation Xrotation
            JOINT RightArm
            {
              OFFSET -16.027195 -2e-06 1.1e-05
              CHANNELS 3 Zrotation Yrotation Xrotation
              JOINT RightForeArm
              {
                OFFSET -28.736639 4e-06 2e-06
                CHANNELS 3 Zrotation Yrotation Xrotation
                JOINT RightHand
                {
                  OFFSET -27.133619 6e-06 0.0
                  CHANNELS 3 Zrotation Yrotation Xrotation
                  JOINT RightHandThumb1
                  {
                    OFFSET -2.274328 -3.351035 -0.83067
                    CHANNELS 3 Zrotation Yrotation Xrotation
                    JOINT RightHandThumb2
                    {
                      OFFSET -4.703594 -3e-06 2e-06
                      CHANNELS 3 Zrotation Yrotation Xrotation
                      JOINT RightHandThumb3
                      {
                        OFFSET -2.794935 -4e-06 -3e-06
                        CHANNELS 3 Zrotation Yrotation Xrotation
                        JOINT RightHandThumbEnd
                        {
                          OFFSET -3.183852 4e-06 1e-06
                          CHANNELS 3 Zrotation Yrotation Xrotation
                        }
                      }
                    }
                  }
                  JOINT RightHandIndex1
                  {
                    OFFSET -3.253496 -2.33755 -0.127667
                    CHANNELS 3 Zrotation Yrotation Xrotation
                    JOINT RightHandIndex2
                    {
                      OFFSET -6.344434 0.0 0.0
                      CHANNELS 3 Zrotation Yrotation Xrotation
                      JOINT RightHandIndex3
                      {
                        OFFSET -3.654871 0.0 -8e-06
                        CHANNELS 3 Zrotation Yrotation Xrotation
                        JOINT RightHandIndex4
                        {
                          OFFSET -2.327586 -1e-06 0.0
                          CHANNELS 3 Zrotation Yrotation Xrotation
                          JOINT RightHandIndexEnd
                          {
                            OFFSET -2.770001 3e-06 8e-06
                            CHANNELS 3 Zrotation Yrotation Xrotation
                          }
                        }
                      }
                    }
                  }
                  JOINT RightHandMiddle1
                  {
                    OFFSET -3.168223 -0.944764 0.411762
                    CHANNELS 3 Zrotation Yrotation Xrotation
                    JOINT RightHandMiddle2
                    {
                      OFFSET -6.266691 -1e-06 -4e-06
                      CHANNELS 3 Zrotation Yrotation Xrotation
                      JOINT RightHandMiddle3
                      {
                        OFFSET -4.348901 0.0 0.0
                        CHANNELS 3 Zrotation Yrotation Xrotation
                        JOINT RightHandMiddle4
                        {
                          OFFSET -3.00024 2e-06 -4e-06
                          CHANNELS 3 Zrotation Yrotation Xrotation
                          JOINT RightHandMiddleEnd
                          {
                            OFFSET -2.321477 -4e-06 -4e-06
                            CHANNELS 3 Zrotation Yrotation Xrotation
                          }
                        }
                      }
                    }
                  }
                  JOINT RightHandRing1
                  {
                    OFFSET -2.885654 0.293261 -0.119232
                    CHANNELS 3 Zrotation Yrotation Xrotation
                    JOINT RightHandRing2
                    {
                      OFFSET -6.032835 -1e-06 -4e-06
                      CHANNELS 3 Zrotation Yrotation Xrotation
                      JOINT RightHandRing3
                      {
                        OFFSET -4.33881 0.0 -4e-06
                        CHANNELS 3 Zrotation Yrotation Xrotation
                        JOINT RightHandRing4
                        {
                          OFFSET -2.654903 -4e-06 -4e-06
                          CHANNELS 3 Zrotation Yrotation Xrotation
                          JOINT RightHandRingEnd
                          {
                            OFFSET -1.935122 0.0 4e-06
                            CHANNELS 3 Zrotation Yrotation Xrotation
                          }
                        }
                      }
                    }
                  }
                  JOINT RightHandPinky1
                  {
                    OFFSET -2.866241 1.503904 -0.60527
                    CHANNELS 3 Zrotation Yrotation Xrotation
                    JOINT RightHandPinky2
                    {
                      OFFSET -5.553177 -2e-06 0.0
                      CHANNELS 3 Zrotation Yrotation Xrotation
                      JOINT RightHandPinky3
                      {
                        OFFSET -3.062664 -1e-06 -4e-06
                        CHANNELS 3 Zrotation Yrotation Xrotation
                        JOINT RightHandPinky4
                        {
                          OFFSET -1.546529 2e-06 4e-06
                          CHANNELS 3 Zrotation Yrotation Xrotation
                          JOINT RightHandPinkyEnd
                          {
                            OFFSET -1.952341 0.0 -4e-06
                            CHANNELS 3 Zrotation Yrotation Xrotation
                          }
                        }
                      }
                    }
                  }
                }
              }
            }
          }
        }
      }
    }
    JOINT LeftLeg
    {
      OFFSET -8.443107 2.567604 10.043214
      CHANNELS 3 Zrotation Yrotation Xrotation
      JOINT LeftShin
      {
        OFFSET 43.229198 1e-06 -1e-06
        CHANNELS 3 Zrotation Yrotation Xrotation
        JOINT LeftFoot
        {
          OFFSET 42.298611 1e-06 1e-06
          CHANNELS 3 Zrotation Yrotation Xrotation
          JOINT LeftToeBase
          {
            OFFSET 14.165858 1e-06 0.0
            CHANNELS 3 Zrotation Yrotation Xrotation
            JOINT LeftToeEnd
            {
              OFFSET 6.7141 -0.234461 0.0
              CHANNELS 3 Zrotation Yrotation Xrotation
            }
          }
        }
      }
    }
    JOINT RightLeg
    {
      OFFSET -8.303923 2.592729 -10.047278
      CHANNELS 3 Zrotation Yrotation Xrotation
      JOINT RightShin
      {
        OFFSET -43.369682 0.0 1e-06
        CHANNELS 3 Zrotation Yrotation Xrotation
        JOINT RightFoot
        {
          OFFSET -42.260784 4e-06 2e-06
          CHANNELS 3 Zrotation Yrotation Xrotation
          JOINT RightToeBase
          {
            OFFSET -14.222245 -2e-06 -1e-06
            CHANNELS 3 Zrotation Yrotation Xrotation
            JOINT RightToeEnd
            {
              OFFSET -6.660062 0.232574 -2e-06
              CHANNELS 3 Zrotation Yrotation Xrotation
            }
          }
        }
      }
    }
  }
}
MOTION
Frames: 4
Frame Time: 0.03333333333333333
0.0 0.0 0.0 0.0 -0.0 0.0 -0.052398 98.774895 -5.07909 92.6408 5.182703 89.765739 -1.418879 -0.039013 0.121822 -11.397953 -0.5806 0.617905 17.455507 -2.321306 -1.71763 20.369345 -0.101571 2.743433 -2.540773 -0.746957 1.903528 -26.407948 -0.844624 3.067409 6e-06 0.0 -0.0 0.006262 0.034378 0.049224 -0.053893 0.11398 0.055017 -0.011095 -0.049252 0.05224 -143.683929 -70.91452 162.029572 40.494156 -49.332581 12.211946 23.073204 0.202329 -0.02903 1.738306 4.279406 -4.046483 17.636629 -26.322729 52.411194 -19.46666 -14.395596 29.410385 -1e-06 -8.774821 -2e-06 15.431452 -18.094156 6.317164 -0.609775 -1.795654 -3.889324 -4.807086 -11.046809 -2.937852 6e-06 -20.976015 -4e-06 -5.019969 -25.033552 -4.031878 6e-06 -3e-06 -2e-06 -10.634534 -5.68697 -3.565586 10.573278 -17.922947 -3.113902 4e-06 -13.821205 -1e-06 -0.501769 -31.181501 -4.027015 -11.306806 -59.098179 7.071437 -13.982712 -7.150195 -2.875043 13.772727 -8.401494 -3.21824 0.347736 -34.211552 0.771655 -0.963028 -17.73337 2.621018 -2e-06 1e-06 -0.0 -17.346415 -20.095213 -4.201782 21.757557 -1.638378 3.866428 2e-06 -6.338823 0.0 -1.697585 -22.591742 -6.194007 -1e-06 -4e-06 -5e-06 23.038292 -68.761894 175.80069 39.568939 -49.774063 6.155632 22.750511 -0.334235 -0.023293 -0.216963 4.14677 10.765888 22.182117 -20.375895 49.933319 -16.701811 -16.74353 28.47653 -3e-06 -12.690601 -2e-06 16.318102 -17.713081 2.465083 -0.10592 -1.513857 -4.275879 -5.039042 -5.612872 -2.953558 3e-06 -11.02052 -0.0 -6.1113 -15.89533 -3.840472 1e-06 -1e-06 -0.0 -10.283371 -5.680287 -4.34184 11.028296 -11.302404 -2.372634 -1.38427 -14.238579 -6.32012 -0.62544 -26.924179 -3.827598 -4.327735 -49.85635 -3.778651 -13.708525 -7.363475 -3.720936 18.141146 -14.052736 -3.242673 6e-06 -18.787266 -2e-06 -0.429711 -8.456043 2.555504 2e-06 -1e-06 1e-06 -15.923538 -20.094482 -5.473583 30.41921 -7.190827 1.735929 3e-06 -8.162924 -1e-06 -1.861902 -22.861465 -6.167942 -0.0 -2e-06 -2e-06 -174.615677 -3.289487 -5.654624 13.104811 -0.064573 0.045155 -81.451836 -3.034072 -9.84748 -3.20365 1.552299 2.203401 -0.999998 1e-06 0.0 2.883348 -9.495823 -3.191292 19.570097 -0.065597 0.119391 -86.43042 5.603806 -7.201506 -3.074834 0.606191 1.67868 -1.000003 0.0 0.0 
0.0 0.0 0.0 0.0 -0.0 0.0 0.047707 98.845276 -5.13802 92.633354 5.201302 89.622566 -1.39859 -0.047074 0.104967 -11.38221 -0.55223 0.64763 17.416208 -2.304115 -1.709484 20.369528 -0.135922 2.740795 -2.521491 -0.69026 1.932957 -26.352543 -0.899209 3.127581 6e-06 -0.0 -0.0 -0.001071 0.035428 0.079065 -0.041024 0.117986 0.088171 -0.003951 -0.050915 0.078179 -143.643646 -70.962021 162.077148 40.714512 -49.348537 11.758582 23.050774 0.121371 -0.056598 1.824589 4.041308 -3.543846 17.636629 -26.322731 52.41119 -19.466658 -14.395596 29.410389 0.0 -8.774821 -2e-06 15.448082 -18.066706 6.291689 -0.609777 -1.795655 -3.889325 -4.807088 -11.046811 -2.937849 2e-06 -20.976019 0.0 -5.01997 -25.03356 -4.031879 8e-06 0.0 -0.0 -10.634534 -5.686971 -3.565588 10.573272 -17.922951 -3.113899 2e-06 -13.821208 -1e-06 -0.501777 -31.181505 -4.027016 -11.34232 -59.124981 7.183892 -13.982712 -7.150198 -2.875044 13.772727 -8.401491 -3.21824 0.347732 -34.211544 0.771655 -0.963028 -17.73337 2.621018 -1e-06 -1e-06 1e-06 -17.346422 -20.095219 -4.20178 21.757557 -1.638375 3.866428 1e-06 -6.338823 -0.0 -1.697589 -22.591747 -6.194008 -1e-06 -3e-06 -1e-06 23.030607 -68.719765 176.002335 39.514877 -49.717304 6.036107 22.723528 -0.336671 -0.049964 -0.189851 4.15741 10.619693 22.182117 -20.375895 49.933319 -16.701811 -16.743526 28.476528 -3e-06 -12.6906 -1e-06 16.316957 -17.696535 2.469476 -0.105921 -1.513856 -4.275881 -5.039042 -5.612873 -2.953557 4e-06 -11.020523 -1e-06 -6.111297 -15.89533 -3.840473 -0.0 -0.0 1e-06 -10.28337 -5.68029 -4.341841 11.028294 -11.302405 -2.372633 -1.384268 -14.238579 -6.320122 -0.625436 -26.924191 -3.827599 -4.365271 -49.915161 -3.751827 -13.708524 -7.363479 -3.72094 18.141148 -14.052739 -3.242673 7e-06 -18.78727 -1e-06 -0.429711 -8.456043 2.555502 -1e-06 1e-06 1e-06 -15.923536 -20.094486 -5.473587 30.41921 -7.190827 1.735926 0.0 -8.162925 -2e-06 -1.861899 -22.861467 -6.167946 -1e-06 -2e-06 -1e-06 -174.187714 -3.155754 -5.599 12.237544 -0.046478 0.08824 -81.057831 -3.257443 -9.869313 -3.123765 1.556198 2.212456 -1.0 0.0 -0.0 3.089698 -9.551826 -3.15942 19.021128 -0.064661 0.128053 -86.084511 5.630249 -7.21019 -3.080236 0.565763 1.672937 -1.000001 -0.0 -0.0 
0.0 0.0 0.0 0.0 -0.0 0.0 0.117988 98.883804 -5.30251 92.633423 5.28166 89.468994 -1.388659 -0.049282 0.099017 -11.375673 -0.548576 0.661413 17.456667 -2.277838 -1.683522 20.376696 -0.18135 2.770831 -2.539692 -0.650367 1.940906 -26.220881 -0.940366 3.159078 6e-06 -0.0 -0.0 -0.0062 0.035103 0.087158 -0.047511 0.117121 0.099273 -0.011227 -0.05087 0.082501 -143.654297 -70.988182 162.105164 40.778103 -49.350048 11.525584 23.085272 0.041885 -0.087245 1.805545 3.808789 -3.286039 17.636623 -26.322718 52.411179 -19.466658 -14.395596 29.410385 -1e-06 -8.774821 -2e-06 15.470919 -18.086178 6.28251 -0.609776 -1.795652 -3.889328 -4.807088 -11.04681 -2.937847 4e-06 -20.976015 -4e-06 -5.019969 -25.033556 -4.031879 6e-06 -0.0 -1e-06 -10.634532 -5.686969 -3.565587 10.573275 -17.922949 -3.1139 5e-06 -13.821206 -4e-06 -0.501773 -31.181498 -4.027018 -11.424947 -59.134037 7.229053 -13.982712 -7.150196 -2.875041 13.772727 -8.401491 -3.218242 0.347735 -34.211544 0.771652 -0.963026 -17.733366 2.621015 -1e-06 -1e-06 -0.0 -17.346418 -20.095217 -4.201779 21.757557 -1.638374 3.866427 1e-06 -6.338822 1e-06 -1.697589 -22.591742 -6.194008 -2e-06 -2e-06 -1e-06 22.948143 -68.682564 176.215897 39.411602 -49.652206 5.992794 22.726109 -0.341279 -0.066741 -0.203861 4.22208 10.52224 22.18211 -20.375895 49.933315 -16.701811 -16.743528 28.476532 -5e-06 -12.690598 -1e-06 16.302761 -17.645576 2.483874 -0.105919 -1.513855 -4.27588 -5.039042 -5.612872 -2.953555 4e-06 -11.02052 -1e-06 -6.111297 -15.89533 -3.840473 0.0 0.0 -0.0 -10.283367 -5.680286 -4.341839 11.028291 -11.302404 -2.372632 -1.384269 -14.238579 -6.320119 -0.62544 -26.924183 -3.827598 -4.378929 -49.912762 -3.747535 -13.708523 -7.363472 -3.720938 18.141148 -14.052738 -3.242676 6e-06 -18.78727 -2e-06 -0.429712 -8.456043 2.555503 1e-06 -2e-06 1e-06 -15.923534 -20.094482 -5.473584 30.41921 -7.190827 1.735924 0.0 -8.162921 -3e-06 -1.861898 -22.861467 -6.167945 -1e-06 -2e-06 0.0 -173.99263 -3.06149 -5.573647 11.843044 -0.035704 0.107984 -80.81028 -3.414557 -9.86431 -3.054369 1.550428 2.217996 -1.0 -0.0 0.0 3.115083 -9.620255 -3.120286 18.826857 -0.052059 0.118423 -85.851326 5.700592 -7.260964 -3.053345 0.54869 1.670254 -1.000001 0.0 0.0 
0.0 0.0 0.0 0.0 -0.0 0.0 0.149353 98.914787 -5.487762 92.625488 5.388243 89.282372 -1.377036 -0.055416 0.103413 -11.374813 -0.544778 0.66712 17.532536 -2.249779 -1.633559 20.406422 -0.218173 2.79254 -2.563669 -0.644493 1.982208 -26.109156 -0.941 3.166635 7e-06 -0.0 -0.0 -0.008949 0.033262 0.084543 -0.06168 0.115091 0.098875 -0.024892 -0.052727 0.076922 -143.679062 -70.992134 162.114761 40.780209 -49.327213 11.505595 23.129044 -0.006851 -0.105621 1.76662 3.702672 -3.119258 17.636625 -26.322729 52.411194 -19.466656 -14.395596 29.410385 -0.0 -8.774821 -3e-06 15.484225 -18.075365 6.276524 -0.609776 -1.795654 -3.889328 -4.807088 -11.04681 -2.937848 2e-06 -20.976015 -1e-06 -5.019971 -25.033556 -4.03188 7e-06 2e-06 3e-06 -10.634533 -5.68697 -3.565587 10.573271 -17.922947 -3.113899 2e-06 -13.821205 -2e-06 -0.501777 -31.181498 -4.027016 -11.46149 -59.137943 7.237547 -13.982712 -7.150198 -2.875042 13.772727 -8.401489 -3.218238 0.347733 -34.211555 0.771653 -0.96303 -17.73337 2.621017 -1e-06 -1e-06 -0.0 -17.346415 -20.095213 -4.201784 21.757553 -1.638374 3.866429 1e-06 -6.338822 2e-06 -1.697587 -22.591742 -6.194003 -3e-06 -4e-06 -4e-06 22.829273 -68.674492 176.410614 39.326504 -49.600136 6.112063 22.758928 -0.315372 -0.065858 -0.238393 4.244972 10.451407 22.182112 -20.375887 49.933315 -16.701817 -16.74353 28.476534 -4e-06 -12.690601 -2e-06 16.269688 -17.596869 2.510777 -0.10592 -1.513856 -4.275886 -5.039041 -5.612874 -2.953554 3e-06 -11.020523 -2e-06 -6.1113 -15.89533 -3.840472 0.0 -0.0 -1e-06 -10.283369 -5.680288 -4.341839 11.028295 -11.302403 -2.372634 -1.384268 -14.238579 -6.320124 -0.625438 -26.924187 -3.827601 -4.403181 -49.875717 -3.718026 -13.708524 -7.363477 -3.72094 18.141148 -14.052738 -3.242674 6e-06 -18.787268 -2e-06 -0.429711 -8.456043 2.555502 3e-06 -1e-06 2e-06 -15.923536 -20.094482 -5.473584 30.41921 -7.190824 1.735928 1e-06 -8.162922 -2e-06 -1.861902 -22.861465 -6.167945 -2e-06 -4e-06 -1e-06 -173.802826 -3.00131 -5.601439 11.500172 -0.029879 0.110287 -80.60984 -3.571098 -9.885671 -3.026076 1.546757 2.219783 -1.0 0.0 -0.0 3.097428 -9.66481 -3.098772 18.731976 -0.043687 0.10029 -85.650795 5.818158 -7.30209 -3.050711 0.535475 1.666087 -1.000002 0.0 -0.0 
